<svg xmlns="http://www.w3.org/2000/svg" width="24" height="24" viewBox="0 0 1024 643" version="1.1"><path d="M 524.066 2.190 C 523.555 3.460, 521.604 8.100, 519.731 12.500 C 517.858 16.900, 514.875 24.100, 513.103 28.500 C 511.331 32.900, 509.273 37.850, 508.530 39.500 C 506.820 43.293, 502.026 54.550, 498.521 63 C 497.039 66.575, 495.244 70.850, 494.533 72.500 C 493.822 74.150, 492.019 78.425, 490.527 82 C 484.072 97.457, 482.675 100.719, 480.893 104.500 C 479.855 106.700, 477.623 112.100, 475.931 116.500 C 472.764 124.738, 470.389 130.208, 466.615 137.963 C 464.801 141.690, 463.319 143.009, 457.628 145.963 C 438.731 155.772, 428.354 161.360, 427 162.458 C 425.437 163.725, 411.095 172, 410.462 172 C 410.263 172, 408.100 173.350, 405.655 175 C 403.210 176.650, 400.868 178, 400.449 178 C 400.031 178, 398.214 179.125, 396.411 180.500 C 394.608 181.875, 392.899 183, 392.613 183 C 392.327 183, 387.685 185.713, 382.297 189.028 C 376.908 192.344, 371.600 195.606, 370.501 196.278 C 369.402 196.950, 364.813 199.863, 360.304 202.750 C 355.794 205.637, 351.869 208, 351.582 208 C 351.294 208, 349.133 209.300, 346.779 210.888 C 341.321 214.573, 321.035 227.705, 314.500 231.785 C 311.750 233.502, 308.600 235.580, 307.500 236.404 C 304.113 238.940, 288.947 249, 288.511 249 C 288.285 249, 286.013 250.462, 283.461 252.250 C 280.910 254.037, 276.441 257.075, 273.530 259 C 263.216 265.821, 245.950 277.643, 228.888 289.567 C 226.475 291.253, 218.875 296.475, 212 301.170 C 195.165 312.667, 184.257 320.410, 179.817 324.012 C 177.792 325.655, 175.896 327, 175.605 327 C 175.314 327, 172.246 329.033, 168.788 331.518 C 165.329 334.003, 159.125 338.340, 155 341.156 C 150.875 343.971, 146.046 347.450, 144.269 348.887 C 142.493 350.324, 137.093 354.322, 132.269 357.771 C 109.828 373.817, 91.669 387.006, 77.569 397.500 C 72.396 401.350, 60.814 409.943, 51.832 416.595 C 1.365 453.971, 0.500 454.659, 0.500 457.377 C 0.500 458.897, 1.210 459.583, 3 459.792 C 4.375 459.952, 6.400 460.488, 7.500 460.983 C 8.600 461.478, 13.520 462.837, 18.434 464.004 C 23.347 465.171, 28.072 466.503, 28.934 466.963 C 29.795 467.423, 32.075 468.059, 34 468.375 C 35.925 468.692, 40.538 470.063, 44.250 471.422 C 47.962 472.781, 51 473.686, 51 473.433 C 51 473.180, 52.687 473.694, 54.750 474.575 C 56.812 475.456, 60.934 476.825, 63.910 477.617 C 66.885 478.410, 70.732 479.728, 72.459 480.548 C 74.186 481.367, 76.477 482.236, 77.550 482.479 C 80.610 483.173, 86.891 485.558, 87.648 486.315 C 88.025 486.692, 89.283 487, 90.444 487 C 91.605 487, 93.443 487.610, 94.527 488.355 C 95.612 489.100, 99.533 490.710, 103.239 491.933 C 106.946 493.156, 110.235 494.571, 110.548 495.078 C 110.862 495.585, 111.813 496, 112.662 496 C 113.511 496, 119.288 498.250, 125.500 501 C 131.712 503.750, 137.116 506, 137.508 506 C 137.900 506, 141.434 507.535, 145.361 509.411 C 151.725 512.451, 160.586 516.652, 180.759 526.193 C 186.194 528.763, 219.828 546.488, 224 548.980 C 224.825 549.473, 230.225 552.611, 236 555.954 C 241.775 559.297, 248.975 563.571, 252 565.452 C 255.025 567.332, 260.650 570.699, 264.500 572.934 C 283.031 583.689, 322.061 610.875, 351.992 633.876 L 364.192 643.251 370.828 636.876 C 374.478 633.369, 386.697 621.482, 397.982 610.460 C 427.213 581.910, 448.139 561.686, 474.500 536.511 C 487.150 524.429, 501.864 510.311, 507.198 505.136 L 516.896 495.728 525.698 497.989 C 530.539 499.233, 538.224 500.625, 542.775 501.082 C 547.326 501.539, 551.469 502.172, 551.982 502.489 C 553.791 503.607, 593.732 505.958, 611.500 505.993 C 633.219 506.034, 667.460 504.407, 686.261 502.440 C 693.830 501.648, 703.280 500.997, 707.261 500.992 C 711.243 500.988, 717.339 500.524, 720.809 499.961 C 728.964 498.638, 744.478 496.970, 754 496.394 C 758.125 496.144, 765.325 495.231, 770 494.364 C 774.675 493.498, 785.025 491.957, 793 490.939 C 813.114 488.374, 825.801 486.525, 837.500 484.456 C 843 483.483, 848.489 482.751, 849.699 482.828 C 850.908 482.906, 854.123 481.851, 856.844 480.485 C 859.564 479.118, 862.194 478, 862.687 478 C 864.229 478, 881.270 467.906, 884.403 465.136 C 900.065 451.293, 908.066 438.286, 909.584 424.196 C 910.244 418.074, 909.315 416.423, 904.681 415.484 C 902.931 415.129, 899.025 413.920, 896 412.797 C 892.975 411.674, 889.150 410.399, 887.500 409.964 C 885.850 409.529, 882.031 408.234, 879.014 407.086 C 870.401 403.811, 870.083 403.942, 860.999 414.501 L 852.825 424.003 842.663 414.509 C 837.073 409.288, 832.039 405.012, 831.477 405.008 C 830.914 405.003, 826.874 408.600, 822.500 413 C 818.126 417.400, 814.074 421, 813.497 421 C 812.919 421, 809.308 417.816, 805.473 413.925 C 801.638 410.034, 796.843 405.520, 794.817 403.894 L 791.134 400.938 785.317 408.090 C 782.118 412.024, 778.375 416.751, 777 418.595 C 775.625 420.440, 774.182 421.960, 773.793 421.974 C 773.403 421.988, 768.997 418.400, 764 414 C 759.003 409.600, 754.466 406, 753.916 406 C 753.367 406, 748.999 409.155, 744.209 413.010 C 739.419 416.866, 735.003 419.830, 734.395 419.597 C 733.788 419.365, 729.738 416.507, 725.395 413.247 C 721.053 409.988, 716.559 406.821, 715.410 406.211 C 713.270 405.074, 713.613 404.852, 695.190 419.316 C 694.202 420.092, 691.450 417.922, 683.970 410.470 L 674.059 400.596 671.779 402.614 C 670.526 403.723, 665.303 407.710, 660.173 411.474 L 650.846 418.316 638.520 406.020 L 626.195 393.725 623.259 395.816 C 621.644 396.966, 619.745 398.603, 619.039 399.453 C 617.097 401.793, 614.129 401.321, 610.442 398.083 L 607.121 395.167 617.754 385.083 C 623.603 379.538, 628.790 375, 629.282 375 C 629.774 375, 634.059 378.600, 638.806 383 C 643.552 387.400, 647.746 391, 648.126 391 C 648.772 391, 656.342 381.936, 662 374.387 C 663.375 372.552, 664.882 371.040, 665.349 371.026 C 665.816 371.012, 671.136 375.698, 677.171 381.441 C 684.216 388.144, 688.670 391.680, 689.613 391.318 C 690.421 391.008, 695.156 385.410, 700.135 378.877 C 705.113 372.345, 709.309 367, 709.457 367 C 709.606 367, 711.019 368.913, 712.598 371.250 C 714.176 373.587, 717.275 377.828, 719.484 380.673 C 721.693 383.518, 724.816 387.748, 726.424 390.074 L 729.347 394.302 731.734 391.401 C 733.047 389.806, 736.311 385.575, 738.988 382 C 748.119 369.803, 749.500 368.100, 750.103 368.300 C 750.897 368.564, 758.187 377.681, 764.888 386.791 C 767.837 390.802, 770.419 393.915, 770.624 393.709 C 770.830 393.504, 773.586 389.734, 776.749 385.331 C 786.747 371.416, 789.367 368, 790.044 368 C 790.909 368, 797.929 375.656, 805.885 385.278 C 809.396 389.525, 812.364 393, 812.480 393 C 812.596 393, 817.589 387.150, 823.577 380 C 829.564 372.850, 834.761 367, 835.127 367 C 835.492 367, 841.045 372.815, 847.467 379.922 L 859.143 392.843 873.322 382.624 C 881.120 377.003, 887.994 372.105, 888.597 371.738 C 889.215 371.362, 897.497 378.478, 907.558 388.027 L 925.422 404.983 928.815 401.742 C 930.681 399.959, 944.855 384.775, 960.313 368 C 975.771 351.225, 994.346 331.425, 1001.591 324 C 1008.836 316.575, 1015.989 308.523, 1017.485 306.106 C 1021.505 299.615, 1024 291.455, 1024 284.796 C 1024 279.784, 1023.624 278.556, 1021.480 276.569 C 1018.440 273.752, 1007.808 268.558, 1001.832 266.971 C 999.449 266.338, 995.025 265.003, 992 264.004 C 988.975 263.005, 982.900 261.635, 978.500 260.960 C 974.100 260.284, 970.072 259.342, 969.550 258.866 C 969.027 258.390, 967.238 258, 965.573 258 C 963.908 258, 959.160 257.356, 955.023 256.568 C 940.057 253.719, 935.311 253, 931.440 252.996 C 929.273 252.994, 922.100 252.123, 915.500 251.061 C 908.900 249.999, 896.075 248.624, 887 248.006 C 877.925 247.388, 864.857 246.234, 857.960 245.441 C 851.062 244.649, 840.487 243.976, 834.460 243.946 C 828.432 243.916, 820.084 243.533, 815.910 243.095 C 808.461 242.312, 808.138 242.159, 798.568 234.898 C 793.204 230.829, 787.845 226.848, 786.658 226.051 C 785.471 225.254, 782.250 222.736, 779.500 220.456 C 776.750 218.176, 772.635 215.139, 770.355 213.709 C 768.074 212.278, 763.763 209.114, 760.773 206.679 C 757.783 204.244, 753.348 200.983, 750.918 199.433 C 748.488 197.882, 745.375 195.627, 744 194.420 C 737.686 188.878, 712.062 171.968, 701.527 166.391 C 678.415 154.156, 663.971 148.055, 654.633 146.583 C 652.507 146.248, 650.454 145.780, 650.071 145.544 C 648.040 144.288, 628.708 142, 620.132 142 C 608.862 142, 609.435 142.479, 606.962 131 C 606.310 127.975, 605.156 123.695, 604.397 121.490 C 603.638 119.284, 602.124 113.659, 601.033 108.990 C 599.941 104.320, 596.752 91.725, 593.945 81 C 591.138 70.275, 587.950 57.900, 586.861 53.500 C 585.772 49.100, 584.526 44.600, 584.092 43.500 C 583.227 41.307, 579.288 25.855, 577.975 19.500 C 577.520 17.300, 576.653 14.203, 576.048 12.618 C 574.982 9.822, 574.890 9.789, 572.975 11.523 C 571.889 12.506, 571 13.940, 571 14.710 C 571 15.480, 570.140 17.998, 569.090 20.305 C 568.039 22.612, 566.294 26.750, 565.212 29.500 C 560.600 41.216, 556.669 50.922, 554.076 57 C 552.550 60.575, 550.462 65.475, 549.436 67.890 L 547.570 72.280 546.742 68.890 C 546.287 67.025, 544.773 61.675, 543.378 57 C 540.763 48.239, 538.219 39.474, 533.510 23 C 529.443 8.770, 526.809 1, 525.853 0.409 C 525.382 0.118, 524.578 0.919, 524.066 2.190 M 625.462 233.992 C 620.533 238.388, 616.163 241.988, 615.750 241.992 C 615.337 241.996, 615 242.450, 615 243 C 615 243.635, 622.667 244, 636 244 C 647.550 244, 657 243.761, 657 243.469 C 657 242.236, 636.599 226.083, 634.962 226.020 C 634.667 226.009, 630.392 229.596, 625.462 233.992" stroke="none" fill="#fffcfc" fill-rule="evenodd"/><path d="" stroke="none" fill="#fcfcfc" fill-rule="evenodd"/></svg>